<svg xmlns="http://www.w3.org/2000/svg" version="1.1" xmlns:xlink="http://www.w3.org/1999/xlink" xmlns:svgjs="http://svgjs.dev/svgjs" width="1500" height="1505" viewBox="0 0 1500 1505"><g transform="matrix(1,0,0,1,0,-2.6762465215743987)"><svg viewBox="0 0 280 281" data-background-color="#ffffff" preserveAspectRatio="xMidYMid meet" height="1505" width="1500" xmlns="http://www.w3.org/2000/svg" xmlns:xlink="http://www.w3.org/1999/xlink"><g id="tight-bounds" transform="matrix(1,0,0,1,0,0.49988053115339426)"><svg viewBox="0 0 280 280" height="280" width="280"><g><svg viewBox="0 0 280 280" height="280" width="280"><g transform="matrix(1,0,0,1,99.47016936225872,60.80404050710668)"><svg viewBox="0 0 81.05966127548257 158.39191898578665" height="158.39191898578665" width="81.05966127548257"><g><svg viewBox="0 0 159.18387858071557 311.0479318968743" height="158.39191898578665" width="81.05966127548257"><g><rect width="159.18387858071557" height="9.526987332975667" x="0" y="170.93826954422005" fill="#343434" opacity="1" stroke-width="0" stroke="transparent" fill-opacity="1" class="rect-yte-0" data-fill-palette-color="primary" rx="1%" id="yte-0" data-palette-color="#343434"></rect></g><g transform="matrix(1,0,0,1,0.395979797464463,205.40501429336237)"><svg viewBox="0 0 158.39191898578665 105.64291760351186" height="105.64291760351186" width="158.39191898578665"><g id="textblocktransform"><svg viewBox="0 0 158.39191898578665 105.64291760351186" height="105.64291760351186" width="158.39191898578665" id="textblock"><g><svg viewBox="0 0 158.39191898578665 105.64291760351186" height="105.64291760351186" width="158.39191898578665"><g transform="matrix(1,0,0,1,0,0)"><svg width="158.39191898578665" viewBox="0.75 -36.05 54.85 36.449999999999996" height="105.64291760351186" data-palette-color="#343434"><g class="wordmark-text-0" data-fill-palette-color="primary" id="text-0"><path d="M0.75 0L7.25-33.45 26.5-33.45 25.65-29.25 12.2-29.25 10.3-19.2 21.2-19.2 20.3-15.05 9.45-15.05 6.55 0 0.75 0ZM33.4-36.05Q35-36.05 35.75-35.18 36.5-34.3 36.5-32.8L36.5-32.8Q36.5-31.35 35.5-30.23 34.5-29.1 32.8-29.1L32.8-29.1Q31.2-29.1 30.45-30 29.7-30.9 29.7-32.25L29.7-32.25Q29.7-33.8 30.67-34.93 31.65-36.05 33.4-36.05L33.4-36.05ZM29.75 0.25Q27.5 0.25 26.3-0.9 25.1-2.05 25.1-3.95L25.1-3.95Q25.1-4.65 25.25-5.4L25.25-5.4 29.05-24.5 34.55-24.5 30.95-5.9Q30.9-5.65 30.87-5.48 30.85-5.3 30.85-5.1L30.85-5.1Q30.85-3.85 31.7-3.85L31.7-3.85Q32.55-3.85 33.35-4.03 34.15-4.2 34.25-4.25L34.25-4.25 34.25-0.65Q33.7-0.4 33-0.2L33-0.2Q32.4 0 31.57 0.13 30.75 0.25 29.75 0.25L29.75 0.25ZM39.5-20.45L39.5-24.5 44.5-24.5 46.7-30.75 51.45-31.8 50-24.5 55.6-24.5 54.9-20.45 49.2-20.45 46.4-5.7Q46.35-5.45 46.32-5.28 46.3-5.1 46.3-4.95L46.3-4.95Q46.3-4.25 46.7-3.98 47.1-3.7 48.2-3.7L48.2-3.7Q48.9-3.7 49.62-3.83 50.35-3.95 51-4.1L51-4.1Q51.75-4.3 52.45-4.55L52.45-4.55 52.45-0.8Q51.6-0.45 50.6-0.2L50.6-0.2Q49.75 0.05 48.57 0.23 47.4 0.4 46.1 0.4L46.1 0.4Q43.1 0.4 41.82-0.68 40.55-1.75 40.55-3.8L40.55-3.8Q40.55-4.45 40.7-5.2L40.7-5.2 43.75-20.45 39.5-20.45Z" fill="#343434" data-fill-palette-color="primary"></path></g></svg></g></svg></g></svg></g></svg></g><g transform="matrix(1,0,0,1,31.930965138205003,0)"><svg viewBox="0 0 95.32194830430556 145.9985121280534" height="145.9985121280534" width="95.32194830430556"><g><svg xmlns="http://www.w3.org/2000/svg" xmlns:xlink="http://www.w3.org/1999/xlink" version="1.1" x="0" y="0" viewBox="3.4538973999999953 0.14999944389237765 65.09314950185811 99.69900055610762" enable-background="new 0 0 100 100" xml:space="preserve" height="145.9985121280534" width="95.32194830430556" class="icon-icon-0" data-fill-palette-color="accent" id="icon-0"><g display="none" fill="#d56128" data-fill-palette-color="accent"><circle display="inline" cx="29.207" cy="20.747" r="6.2" fill="#d56128" data-fill-palette-color="accent"></circle><circle display="inline" cx="11.902" cy="43.783" r="6.2" fill="#d56128" data-fill-palette-color="accent"></circle><rect x="17.933" y="46.131" transform="matrix(-0.7071 -0.7071 0.7071 -0.7071 1.1003 98.9343)" display="inline" width="6.218" height="6.217" fill="#d56128" data-fill-palette-color="accent"></rect><rect x="13.531" y="50.525" transform="matrix(-0.7071 -0.7071 0.7071 -0.7071 -9.521 103.3221)" display="inline" width="6.218" height="6.217" fill="#d56128" data-fill-palette-color="accent"></rect><rect x="9.141" y="54.922" transform="matrix(-0.7071 -0.7071 0.7071 -0.7071 -20.1216 107.7285)" display="inline" width="6.217" height="6.218" fill="#d56128" data-fill-palette-color="accent"></rect><rect x="17.93" y="54.921" transform="matrix(-0.707 -0.7072 0.7072 -0.707 -5.1267 113.9345)" display="inline" width="6.218" height="6.217" fill="#d56128" data-fill-palette-color="accent"></rect><rect x="13.532" y="59.315" transform="matrix(-0.7071 -0.7071 0.7071 -0.7071 -15.7334 118.3307)" display="inline" width="6.218" height="6.217" fill="#d56128" data-fill-palette-color="accent"></rect><rect x="22.206" y="59.196" transform="matrix(-0.7072 -0.707 0.707 -0.7072 -0.8335 124.2642)" display="inline" width="6.218" height="6.217" fill="#d56128" data-fill-palette-color="accent"></rect><rect x="26.602" y="54.739" transform="matrix(-0.7072 -0.707 0.707 -0.7072 9.8226 119.7633)" display="inline" width="6.218" height="6.217" fill="#d56128" data-fill-palette-color="accent"></rect><rect x="30.997" y="59.134" transform="matrix(-0.7069 -0.7073 0.7073 -0.7069 14.193 130.3656)" display="inline" width="6.219" height="6.216" fill="#d56128" data-fill-palette-color="accent"></rect><rect x="35.395" y="63.53" transform="matrix(-0.7072 -0.707 0.707 -0.7072 18.6175 140.9877)" display="inline" width="6.218" height="6.217" fill="#d56128" data-fill-palette-color="accent"></rect><rect x="39.785" y="67.923" transform="matrix(-0.7069 -0.7073 0.7073 -0.7069 22.9769 151.5836)" display="inline" width="6.219" height="6.216" fill="#d56128" data-fill-palette-color="accent"></rect><rect x="17.812" y="63.592" transform="matrix(-0.7072 -0.707 0.707 -0.7072 -11.4447 128.6616)" display="inline" width="6.217" height="6.218" fill="#d56128" data-fill-palette-color="accent"></rect><rect x="22.171" y="67.954" transform="matrix(-0.7071 -0.7071 0.7071 -0.7071 -7.0939 139.1866)" display="inline" width="6.218" height="6.217" fill="#d56128" data-fill-palette-color="accent"></rect><rect x="26.529" y="72.319" transform="matrix(-0.7071 -0.7071 0.7071 -0.7071 -2.7412 149.72)" display="inline" width="6.218" height="6.217" fill="#d56128" data-fill-palette-color="accent"></rect><rect x="22.172" y="76.679" transform="matrix(-0.7069 -0.7073 0.7073 -0.7069 -13.2808 154.071)" display="inline" width="6.219" height="6.217" fill="#d56128" data-fill-palette-color="accent"></rect><rect x="4.741" y="59.318" transform="matrix(-0.7069 -0.7073 0.7073 -0.7069 -30.7541 112.1078)" display="inline" width="6.219" height="6.216" fill="#d56128" data-fill-palette-color="accent"></rect><rect x="22.323" y="41.731" transform="matrix(-0.7071 -0.7071 0.7071 -0.7071 11.7065 94.529)" display="inline" width="6.218" height="6.217" fill="#d56128" data-fill-palette-color="accent"></rect><rect x="26.689" y="37.366" transform="matrix(-0.7071 -0.7071 0.7071 -0.7071 22.2513 90.1643)" display="inline" width="6.218" height="6.217" fill="#d56128" data-fill-palette-color="accent"></rect></g><g fill="#d56128" data-fill-palette-color="accent"><path d="M50.084 0.15A8.135 8.135 0 0 1 58.221 8.283C58.221 12.776 54.576 16.409 50.084 16.409A8.12 8.12 0 0 1 41.956 8.283 8.125 8.125 0 0 1 50.084 0.15" fill="#d56128" data-fill-palette-color="accent"></path><path d="M68.547 28.804V53.627C68.567 58.525 62.184 58.525 62.184 53.627V29.33H60.186L60.176 95.285A4.58 4.58 0 0 1 55.61 99.849C53.087 99.849 51.055 97.788 51.055 95.285L51.065 57.01H49.047L49.026 95.285A4.573 4.573 0 0 1 44.461 99.849C41.946 99.849 39.906 97.788 39.906 95.285L39.917 29.33H37.866V53.627C37.866 58.496 31.464 58.496 31.464 53.627V28.663C31.464 22.795 35.069 18.11 40.826 18.11H48.986V45.791H51.026V18.11H59.065C65.385 18.11 68.547 23.412 68.547 28.804" fill="#d56128" data-fill-palette-color="accent"></path><rect x="31.454" y="58.322" width="6.415" height="19.264" fill="#d56128" data-fill-palette-color="accent"></rect></g></svg></g></svg></g><g></g></svg></g></svg></g><g id="text-0"><path d="M29.79 114.676l-24.08-14.225 5.296-14.881 3.016 1.805-3.702 10.4 7.25 4.242 3.002-8.433 2.962 1.838-2.985 8.387 10.836 6.386z" fill="#d56128" data-fill-palette-color="accent"></path><path d="M144.972 0c0.873 0.009 1.511 0.254 1.913 0.738 0.409 0.483 0.609 1.135 0.601 1.956v0c-0.008 0.788-0.287 1.488-0.837 2.099-0.557 0.612-1.299 0.913-2.225 0.904v0c-0.88-0.009-1.521-0.261-1.923-0.757-0.409-0.496-0.61-1.116-0.602-1.858v0c0.008-0.847 0.281-1.573 0.819-2.178 0.544-0.612 1.296-0.913 2.254-0.904zM141.678 29.759c-1.228-0.012-2.167-0.336-2.817-0.973-0.65-0.637-0.97-1.474-0.96-2.51v0c0.004-0.387 0.047-0.784 0.13-1.191v0l3.274-15.646 4.51 0.043-3.103 15.235c-0.028 0.138-0.048 0.256-0.062 0.354-0.014 0.092-0.022 0.193-0.023 0.305v0c-0.007 0.683 0.223 1.026 0.689 1.031v0c0.466 0.005 0.916-0.037 1.35-0.125 0.441-0.094 0.688-0.154 0.741-0.18v0l-0.029 2.955c-0.297 0.135-0.639 0.253-1.028 0.354v0c-0.329 0.108-0.721 0.193-1.174 0.254-0.447 0.068-0.946 0.099-1.498 0.094z" fill="#d56128" data-fill-palette-color="accent"></path><path d="M262.216 97.383l3.154-1.062 1.311 3.892 5.437 0.07 2.057 3.422-6.055 0.782 1.468 4.358-3.336 0.522-1.493-4.433-12.206 1.679c-0.139 0.019-0.254 0.037-0.345 0.054-0.098 0.019-0.184 0.041-0.259 0.066v0c-0.367 0.124-0.588 0.312-0.661 0.566-0.072 0.26-0.012 0.673 0.178 1.239v0c0.124 0.367 0.283 0.726 0.477 1.076 0.19 0.359 0.382 0.692 0.576 1.001v0c0.229 0.352 0.471 0.69 0.726 1.013v0l-2.912 0.98c-0.329-0.381-0.647-0.811-0.954-1.289v0c-0.277-0.392-0.565-0.876-0.864-1.455-0.292-0.58-0.553-1.21-0.781-1.888v0c-0.524-1.555-0.62-2.756-0.289-3.602 0.338-0.848 1.039-1.451 2.103-1.809v0c0.336-0.113 0.709-0.197 1.12-0.253v0l12.663-1.616z" fill="#d56128" data-fill-palette-color="accent"></path><path d="M9.915 180.724l29.639-4.67 5.782 15.932-3.736 0.559-4.038-11.127-8.884 1.444 3.272 9.016-3.703 0.506-3.259-8.98-13.33 2.125z" fill="#d56128" data-fill-palette-color="accent"></path><path d="M144.913 248.011c0.939-0.01 1.631 0.239 2.076 0.747 0.445 0.507 0.672 1.204 0.682 2.09v0c0.009 0.847-0.279 1.605-0.863 2.275-0.577 0.663-1.365 0.999-2.363 1.009v0c-0.939 0.01-1.631-0.246-2.076-0.766-0.445-0.527-0.672-1.185-0.68-1.972v0c-0.01-0.913 0.268-1.7 0.832-2.363 0.564-0.669 1.362-1.009 2.392-1.02zM142.028 280c-1.32 0.014-2.334-0.31-3.044-0.973-0.716-0.669-1.08-1.561-1.091-2.677v0c-0.004-0.414 0.037-0.841 0.124-1.282v0l3.172-16.844 4.835-0.051-2.999 16.409c-0.025 0.145-0.043 0.27-0.055 0.375-0.012 0.099-0.018 0.207-0.017 0.325v0c0.008 0.735 0.261 1.1 0.76 1.095v0c0.499-0.005 0.981-0.063 1.446-0.172 0.472-0.103 0.737-0.172 0.796-0.206v0l0.033 3.171c-0.327 0.148-0.693 0.283-1.099 0.406v0c-0.353 0.122-0.772 0.221-1.257 0.298-0.478 0.077-1.013 0.119-1.604 0.126z" fill="#d56128" data-fill-palette-color="accent"></path><path d="M248.948 187.313l-3.372-1.155 1.426-4.164-4.583-3.61 0.48-4.259 5.669 3.294 1.598-4.668 3.172 1.742-1.624 4.742 11.479 6.543c0.134 0.074 0.246 0.133 0.335 0.177 0.093 0.053 0.18 0.093 0.26 0.121v0c0.391 0.134 0.703 0.116 0.935-0.055 0.226-0.173 0.443-0.563 0.651-1.172v0c0.134-0.391 0.236-0.801 0.306-1.227 0.07-0.427 0.123-0.836 0.16-1.226v0c0.037-0.452 0.05-0.895 0.038-1.33v0l3.121 1.069c0.037 0.54 0.029 1.11-0.023 1.71v0c-0.025 0.519-0.099 1.121-0.223 1.807-0.124 0.686-0.309 1.39-0.556 2.11v0c-0.572 1.671-1.277 2.758-2.116 3.262-0.839 0.504-1.83 0.56-2.973 0.169v0c-0.36-0.123-0.734-0.3-1.119-0.529v0l-11.832-6.882z" fill="#d56128" data-fill-palette-color="accent"></path><path d="M4.614 144.106c0-6.241 5.059-11.301 11.301-11.3 6.241 0 11.301 5.059 11.301 11.3 0 6.241-5.059 11.301-11.301 11.301-6.241 0-11.301-5.059-11.301-11.301z" fill="#d56128" data-fill-palette-color="accent"></path><path d="M252.784 144.106c0-6.241 5.059-11.301 11.301-11.3 6.241 0 11.301 5.059 11.301 11.3 0 6.241-5.059 11.301-11.301 11.301-6.241 0-11.301-5.059-11.301-11.301z" fill="#d56128" data-fill-palette-color="accent"></path></g><g id="text-1"></g></svg></g><defs></defs></svg><rect width="280" height="280" fill="none" stroke="none" visibility="hidden"></rect></g></svg></g></svg>